# Blender v2.76 (sub 0) OBJ File: ''
# www.blender.org
o Circle.002_Circle.030
v 0.276223 -0.178451 0.904611
v 0.276223 -0.178451 1.029496
v 0.130205 -0.346799 1.029496
v 0.130205 -0.346799 0.904611
v -0.092086 -0.362588 1.029496
v -0.092086 -0.362588 0.904611
v -0.260434 -0.216570 1.029496
v -0.260434 -0.216570 0.904611
v -0.276223 0.005721 1.029496
v -0.276223 0.005721 0.904611
v -0.130205 0.174069 1.029496
v -0.130205 0.174069 0.904611
v 0.092086 0.189858 1.029496
v 0.092086 0.189858 0.904611
v 0.260434 0.043840 1.029496
v 0.260434 0.043840 0.904611
v 0.031140 -0.148651 0.820660
v 0.066062 -0.108388 0.820660
v -0.022023 -0.152427 0.820660
v -0.062286 -0.117505 0.820660
v -0.066062 -0.064342 0.820660
v -0.031140 -0.024079 0.820660
v 0.022023 -0.020303 0.820660
v 0.062286 -0.055225 0.820660
v 0.031140 -0.148651 0.387560
v 0.066062 -0.108388 0.387560
v -0.022023 -0.152427 0.387560
v -0.062286 -0.117505 0.387560
v -0.066062 -0.064342 0.387560
v -0.031140 -0.024079 0.387560
v 0.022023 -0.020303 0.387560
v 0.062286 -0.055225 0.387560
v 0.000000 -0.086365 1.407520
vt 0.885756 0.939960
vt 0.906916 0.940414
vt 0.917827 0.963986
vt 0.901834 0.979321
vt 0.942396 0.972331
vt 0.942167 0.993829
vt 0.965316 0.961086
vt 0.982303 0.976973
vt 0.975089 0.937119
vt 0.995943 0.936229
vt 0.963225 0.914010
vt 0.978761 0.897085
vt 0.939101 0.904162
vt 0.938430 0.883604
vt 0.915343 0.915694
vt 0.900021 0.900022
vt 0.964068 0.913733
vt 0.957750 0.937933
vt 0.940060 0.921537
vt 0.915662 0.915194
vt 0.923637 0.939082
vt 0.917466 0.963576
vt 0.941206 0.955635
vt 0.965511 0.961778
vt 0.199259 0.905776
vt 0.199259 0.907848
vt 0.199426 0.907848
vt 0.199005 0.905776
vt 0.199005 0.907848
vt 0.198812 0.905776
vt 0.198812 0.907848
vt 0.199216 0.905776
vt 0.199216 0.907848
vt 0.199408 0.905776
vt 0.940704 0.938684
vn 0.815300 -0.271800 -0.511300
vn 0.904800 -0.301600 0.300600
vn 0.426500 -0.853100 0.300600
vn 0.384300 -0.768700 -0.511300
vn -0.301600 -0.904800 0.300600
vn -0.271800 -0.815300 -0.511300
vn -0.853100 -0.426500 0.300600
vn -0.768700 -0.384300 -0.511300
vn -0.904800 0.301600 0.300600
vn -0.815300 0.271800 -0.511300
vn -0.426500 0.853100 0.300600
vn -0.384300 0.768700 -0.511300
vn 0.301600 0.904800 0.300600
vn 0.271800 0.815300 -0.511300
vn 0.853100 0.426500 0.300600
vn 0.768700 0.384300 -0.511300
vn 0.342200 -0.684500 -0.643700
vn 0.726000 -0.242000 -0.643700
vn -0.242000 -0.726000 -0.643700
vn -0.684500 -0.342200 -0.643700
vn -0.726000 0.242000 -0.643700
vn -0.342200 0.684500 -0.643700
vn 0.242000 0.726000 -0.643700
vn 0.684500 0.342200 -0.643700
vn 0.447200 -0.894400 -0.000000
vn 0.948700 -0.316300 -0.000000
vn -0.316300 -0.948700 -0.000000
vn -0.894400 -0.447200 -0.000000
vn -0.948700 0.316300 0.000000
vn -0.447200 0.894400 0.000000
vn 0.316300 0.948700 0.000000
vn 0.894400 0.447200 0.000000
vn -0.000000 -0.000000 1.000000
s 1
f 1/1/1 2/2/2 3/3/3
f 4/4/4 3/3/3 5/5/5
f 6/6/6 5/5/5 7/7/7
f 8/8/8 7/7/7 9/9/9
f 10/10/10 9/9/9 11/11/11
f 12/12/12 11/11/11 13/13/13
f 14/14/14 13/13/13 15/15/15
f 16/16/16 15/15/15 2/2/2
f 4/4/4 17/17/17 18/18/18
f 6/6/6 19/19/19 17/17/17
f 8/8/8 20/20/20 19/19/19
f 10/10/10 21/21/21 20/20/20
f 10/10/10 12/12/12 22/22/22
f 14/14/14 23/23/23 22/22/22
f 16/16/16 24/24/24 23/23/23
f 1/1/1 18/18/18 24/24/24
f 17/25/17 25/26/25 26/27/26
f 19/28/19 27/29/27 25/26/25
f 20/30/20 28/31/28 27/29/27
f 21/30/21 29/31/29 28/31/28
f 22/28/22 30/29/30 29/31/29
f 23/32/23 31/33/31 30/29/30
f 24/34/24 32/27/32 31/33/31
f 18/34/18 26/27/26 32/27/32
f 3/3/3 2/2/2 33/35/33
f 5/5/5 3/3/3 33/35/33
f 7/7/7 5/5/5 33/35/33
f 9/9/9 7/7/7 33/35/33
f 11/11/11 9/9/9 33/35/33
f 13/13/13 11/11/11 33/35/33
f 15/15/15 13/13/13 33/35/33
f 2/2/2 15/15/15 33/35/33
f 4/4/4 1/1/1 3/3/3
f 6/6/6 4/4/4 5/5/5
f 8/8/8 6/6/6 7/7/7
f 10/10/10 8/8/8 9/9/9
f 12/12/12 10/10/10 11/11/11
f 14/14/14 12/12/12 13/13/13
f 16/16/16 14/14/14 15/15/15
f 1/1/1 16/16/16 2/2/2
f 1/1/1 4/4/4 18/18/18
f 4/4/4 6/6/6 17/17/17
f 6/6/6 8/8/8 19/19/19
f 8/8/8 10/10/10 20/20/20
f 21/21/21 10/10/10 22/22/22
f 12/12/12 14/14/14 22/22/22
f 14/14/14 16/16/16 23/23/23
f 16/16/16 1/1/1 24/24/24
f 18/34/18 17/25/17 26/27/26
f 17/25/17 19/28/19 25/26/25
f 19/28/19 20/30/20 27/29/27
f 20/30/20 21/30/21 28/31/28
f 21/30/21 22/28/22 29/31/29
f 22/28/22 23/32/23 30/29/30
f 23/32/23 24/34/24 31/33/31
f 24/34/24 18/34/18 32/27/32
o Circle.001_Circle.029
v -0.591924 -0.609072 0.950599
v -0.773332 -0.246223 0.923845
v -0.228608 -0.117276 0.937222
v -0.982652 -0.878657 0.985965
v -1.223448 -0.397021 0.888479
v -1.477573 -1.108704 1.016303
v -1.704457 -0.654895 0.858140
v -1.869531 -1.207965 1.017640
v -2.019059 -0.908881 0.856803
v -2.179220 -1.229994 0.976397
v -2.222513 -1.143400 0.898046
v -2.019059 -0.908881 0.883953
v -1.704457 -0.654895 0.885290
v -1.223448 -0.397021 0.915629
v -0.773332 -0.246223 0.950994
v -0.161906 -0.250693 0.964372
v -0.161906 -0.250693 0.937222
v -0.591924 -0.609072 0.977749
v -0.982652 -0.878657 1.013115
v -1.477573 -1.108704 1.043453
v -2.179220 -1.229994 1.003547
v -2.222513 -1.143400 0.925196
v -0.228608 -0.117276 0.964372
v -1.869531 -1.207965 1.044790
vt 0.525351 0.935682
vt 0.527125 0.978355
vt 0.583882 0.962481
vt 0.475617 0.930752
vt 0.477971 0.987395
vt 0.418297 0.934773
vt 0.420515 0.988144
vt 0.377127 0.945598
vt 0.378589 0.980773
vt 0.347472 0.959347
vt 0.347895 0.969532
vt 0.195776 0.975120
vt 0.224864 0.970555
vt 0.224076 0.966780
vt 0.166572 0.979538
vt 0.194959 0.971313
vt 0.137277 0.983367
vt 0.165785 0.975764
vt 0.108106 0.987483
vt 0.136490 0.979594
vt 0.198336 0.905089
vt 0.198336 0.905219
vt 0.198017 0.905219
vt 0.379749 0.924780
vt 0.408993 0.920611
vt 0.408216 0.916857
vt 0.350400 0.928663
vt 0.378953 0.920964
vt 0.321128 0.933056
vt 0.349609 0.924880
vt 0.291993 0.937679
vt 0.320339 0.929274
vt 0.263221 0.943489
vt 0.264010 0.947268
vt 0.252008 0.957164
vt 0.252816 0.960981
vt 0.583230 0.946791
vt 0.107334 0.983756
vt 0.198017 0.905089
vt 0.291196 0.933853
vn 0.416700 -0.599500 -0.683400
vn -0.175400 0.666300 -0.724800
vn 0.343200 0.727200 -0.594500
vn 0.363900 -0.684600 -0.631600
vn -0.236000 0.607500 -0.758400
vn 0.274300 -0.765700 -0.581800
vn -0.336300 0.500700 -0.797600
vn 0.186800 -0.830000 -0.525600
vn -0.426800 0.340200 -0.838000
vn -0.348600 -0.836900 -0.422000
vn -0.643000 -0.122200 -0.756100
vn -0.573800 0.654400 0.492500
vn -0.457200 0.693800 0.556500
vn -0.331700 0.719000 0.610700
vn -0.216600 0.712300 0.667600
vn 0.796700 -0.162500 0.582100
vn 0.783100 -0.168100 -0.598800
vn 0.451400 -0.542100 0.708800
vn 0.357800 -0.568900 0.740500
vn 0.207700 -0.592100 0.778600
vn -0.501800 -0.505700 0.701800
vn -0.912300 0.209700 0.351900
vn 0.340600 0.735000 0.586300
vn 0.010700 -0.579800 0.814700
s 1
f 34/36/34 35/37/35 36/38/36
f 37/39/37 38/40/38 35/37/35
f 39/41/39 40/42/40 38/40/38
f 41/43/41 42/44/42 40/42/40
f 43/45/43 44/46/44 42/44/42
f 40/47/40 42/48/42 45/49/45
f 38/50/38 40/47/40 46/51/46
f 35/52/35 38/50/38 47/53/47
f 36/54/36 35/52/35 48/55/48
f 49/56/49 50/57/50 36/58/36
f 34/59/34 50/60/50 49/61/49
f 37/62/37 34/59/34 51/63/51
f 39/64/39 37/62/37 52/65/52
f 41/66/41 39/64/39 53/67/53
f 54/68/54 43/69/43 41/66/41
f 55/70/55 44/71/44 43/69/43
f 45/49/45 42/48/42 44/71/44
f 51/36/51 49/72/49 56/38/56
f 52/39/52 51/36/51 48/37/48
f 53/41/53 52/39/52 47/40/47
f 57/43/57 53/41/53 46/42/46
f 45/44/45 55/46/55 54/45/54
f 50/72/50 34/36/34 36/38/36
f 34/36/34 37/39/37 35/37/35
f 37/39/37 39/41/39 38/40/38
f 39/41/39 41/43/41 40/42/40
f 41/43/41 43/45/43 42/44/42
f 46/51/46 40/47/40 45/49/45
f 47/53/47 38/50/38 46/51/46
f 48/55/48 35/52/35 47/53/47
f 56/73/56 36/54/36 48/55/48
f 56/74/56 49/56/49 36/58/36
f 51/63/51 34/59/34 49/61/49
f 52/65/52 37/62/37 51/63/51
f 53/67/53 39/64/39 52/65/52
f 57/75/57 41/66/41 53/67/53
f 57/75/57 54/68/54 41/66/41
f 54/68/54 55/70/55 43/69/43
f 55/70/55 45/49/45 44/71/44
f 48/37/48 51/36/51 56/38/56
f 47/40/47 52/39/52 48/37/48
f 46/42/46 53/41/53 47/40/47
f 45/44/45 57/43/57 46/42/46
f 57/43/57 45/44/45 54/45/54
o Circle.000_Circle.028
v 2.019059 0.736151 0.883953
v 2.222513 0.970671 0.925196
v 2.179220 1.057264 1.003547
v 1.869530 1.035236 1.044790
v 1.477573 0.935974 1.043453
v 1.704457 0.482165 0.885290
v 0.982652 0.705927 1.013115
v 1.223448 0.224292 0.915629
v 0.591924 0.436342 0.977749
v 0.773332 0.073494 0.950994
v 0.161906 0.077963 0.964372
v 0.228608 -0.055454 0.964372
v 2.019059 0.736151 0.856804
v 2.222513 0.970671 0.898046
v 2.179220 1.057264 0.976397
v 1.869530 1.035236 1.017640
v 1.477573 0.935974 1.016303
v 0.982652 0.705927 0.985965
v 0.591924 0.436342 0.950599
v 0.161906 0.077963 0.937222
v 0.228608 -0.055454 0.937222
v 0.773332 0.073494 0.923845
v 1.223448 0.224292 0.888479
v 1.704457 0.482165 0.858140
vt 0.834450 0.926590
vt 0.865143 0.937831
vt 0.865567 0.948015
vt 0.835912 0.961765
vt 0.794742 0.972590
vt 0.792524 0.919219
vt 0.737422 0.976611
vt 0.735068 0.919968
vt 0.687687 0.971681
vt 0.685914 0.929008
vt 0.629809 0.960572
vt 0.629157 0.944882
vt 0.291985 0.937634
vt 0.291196 0.933853
vt 0.263204 0.943444
vt 0.263994 0.947224
vt 0.252008 0.957164
vt 0.252797 0.960941
vt 0.224049 0.966744
vt 0.194959 0.971313
vt 0.195746 0.975088
vt 0.165759 0.975731
vt 0.166546 0.979505
vt 0.136490 0.979594
vt 0.137277 0.983367
vt 0.107320 0.983711
vt 0.108106 0.987483
vt 0.199885 0.905219
vt 0.200204 0.905219
vt 0.200204 0.905089
vt 0.408203 0.916828
vt 0.378953 0.920964
vt 0.379742 0.924747
vt 0.349607 0.924844
vt 0.350396 0.928626
vt 0.320339 0.929274
vt 0.321128 0.933056
vt 0.224837 0.970520
vt 0.199885 0.905089
vt 0.408993 0.920611
vn 0.573800 -0.654400 0.492500
vn 0.912300 -0.209700 0.351900
vn 0.501800 0.505700 0.701800
vn -0.010700 0.579800 0.814700
vn -0.207700 0.592100 0.778600
vn 0.457200 -0.693800 0.556500
vn -0.357800 0.568900 0.740500
vn 0.331700 -0.719000 0.610700
vn -0.451400 0.542100 0.708800
vn 0.216600 -0.712300 0.667600
vn -0.796700 0.162500 0.582100
vn -0.340600 -0.735000 0.586300
vn 0.426800 -0.340200 -0.838000
vn 0.643000 0.122200 -0.756100
vn 0.348600 0.836900 -0.422000
vn -0.186800 0.830000 -0.525600
vn -0.274300 0.765700 -0.581800
vn -0.363900 0.684600 -0.631600
vn -0.416700 0.599500 -0.683400
vn -0.783100 0.168100 -0.598800
vn -0.343200 -0.727200 -0.594500
vn 0.175400 -0.666300 -0.724800
vn 0.236000 -0.607500 -0.758400
vn 0.336300 -0.500700 -0.797600
s 1
f 58/76/58 59/77/59 60/78/60
f 61/79/61 62/80/62 63/81/63
f 62/80/62 64/82/64 65/83/65
f 64/82/64 66/84/66 67/85/67
f 66/84/66 68/86/68 69/87/69
f 58/88/58 70/89/70 71/90/71
f 59/91/59 71/90/71 72/92/72
f 60/93/60 72/92/72 73/94/73
f 73/94/73 74/95/74 62/96/62
f 74/95/74 75/97/75 64/98/64
f 75/97/75 76/99/76 66/100/66
f 76/99/76 77/101/77 68/102/68
f 77/103/77 78/104/78 69/105/69
f 78/106/78 79/107/79 67/108/67
f 79/107/79 80/109/80 65/110/65
f 80/109/80 81/111/81 63/112/63
f 58/88/58 63/112/63 81/111/81
f 72/78/72 71/77/71 70/76/70
f 73/79/73 70/76/70 81/81/81
f 74/80/74 81/81/81 80/83/80
f 75/82/75 80/83/80 79/85/79
f 76/84/76 79/85/79 78/87/78
f 61/79/61 58/76/58 60/78/60
f 58/76/58 61/79/61 63/81/63
f 63/81/63 62/80/62 65/83/65
f 65/83/65 64/82/64 67/85/67
f 67/85/67 66/84/66 69/87/69
f 59/91/59 58/88/58 71/90/71
f 60/93/60 59/91/59 72/92/72
f 61/113/61 60/93/60 73/94/73
f 61/113/61 73/94/73 62/96/62
f 62/96/62 74/95/74 64/98/64
f 64/98/64 75/97/75 66/100/66
f 66/100/66 76/99/76 68/102/68
f 68/114/68 77/103/77 69/105/69
f 69/115/69 78/106/78 67/108/67
f 67/108/67 79/107/79 65/110/65
f 65/110/65 80/109/80 63/112/63
f 70/89/70 58/88/58 81/111/81
f 73/79/73 72/78/72 70/76/70
f 74/80/74 73/79/73 81/81/81
f 75/82/75 74/80/74 80/83/80
f 76/84/76 75/82/75 79/85/79
f 77/86/77 76/84/76 78/87/78